<svg width="26" height="26" viewBox="0 0 26 26" fill="none" xmlns="http://www.w3.org/2000/svg">
<path d="M2.16666 23.8333H23.8333" stroke="#D9D9D9" stroke-width="1.5" stroke-miterlimit="10" stroke-linecap="round" stroke-linejoin="round"/>
<path d="M3.19583 23.8334L3.25 10.8008C3.25 10.14 3.56416 9.51172 4.08416 9.10006L11.6675 3.19588C12.4475 2.58921 13.5417 2.58921 14.3325 3.19588L21.9158 9.08921C22.4467 9.50088 22.75 10.1292 22.75 10.8008V23.8334" fill="#D9D9D9"/>
<path d="M3.19583 23.8334L3.25 10.8008C3.25 10.14 3.56416 9.51172 4.08416 9.10006L11.6675 3.19588C12.4475 2.58921 13.5417 2.58921 14.3325 3.19588L21.9158 9.08921C22.4467 9.50088 22.75 10.1292 22.75 10.8008V23.8334" stroke="#D9D9D9" stroke-width="1.5" stroke-miterlimit="10" stroke-linejoin="round"/>
<path d="M16.7917 10.8333H9.20834C8.30918 10.8333 7.58334 11.5591 7.58334 12.4583V22.75H18.4167V12.4583C18.4167 11.5591 17.6908 10.8333 16.7917 10.8333Z" fill="white" stroke="#D9D9D9" stroke-width="1.5" stroke-miterlimit="10" stroke-linecap="round" stroke-linejoin="round"/>
<path d="M11.375 8.125H14.625" stroke="#D9D9D9" stroke-width="1.5" stroke-miterlimit="10" stroke-linecap="round" stroke-linejoin="round"/>
</svg>
