<svg width="26" height="26" viewBox="0 0 26 26" fill="none" xmlns="http://www.w3.org/2000/svg">
<path d="M2.16669 23.8333H23.8334" stroke="#D9D9D9" stroke-width="1.5" stroke-miterlimit="10" stroke-linecap="round" stroke-linejoin="round"/>
<path d="M3.1958 23.8333L3.24997 10.8008C3.24997 10.14 3.56413 9.51169 4.08413 9.10002L11.6675 3.19584C12.4475 2.58918 13.5416 2.58918 14.3325 3.19584L21.9158 9.08918C22.4466 9.50085 22.75 10.1291 22.75 10.8008V23.8333" fill="#D9D9D9"/>
<path d="M3.1958 23.8333L3.24997 10.8008C3.24997 10.14 3.56413 9.51169 4.08413 9.10002L11.6675 3.19584C12.4475 2.58918 13.5416 2.58918 14.3325 3.19584L21.9158 9.08918C22.4466 9.50085 22.75 10.1291 22.75 10.8008V23.8333" stroke="#D9D9D9" stroke-width="1.5" stroke-miterlimit="10" stroke-linejoin="round"/>
<path d="M16.7916 10.8333H9.20831C8.30915 10.8333 7.58331 11.5591 7.58331 12.4583V22.75H18.4166V12.4583C18.4166 11.5591 17.6908 10.8333 16.7916 10.8333Z" fill="white" stroke="#D9D9D9" stroke-width="1.5" stroke-miterlimit="10" stroke-linecap="round" stroke-linejoin="round"/>
<path d="M11.375 8.125H14.625" stroke="#D9D9D9" stroke-width="1.5" stroke-miterlimit="10" stroke-linecap="round" stroke-linejoin="round"/>
</svg>
