<svg width="27" height="26" viewBox="0 0 27 26" fill="none" xmlns="http://www.w3.org/2000/svg">
<path d="M24.2735 6.50033V9.12199C24.2735 10.8337 23.1902 11.917 21.4785 11.917H17.7735V4.34449C17.7735 3.14199 18.7593 2.16699 19.9618 2.16699C21.1427 2.17783 22.226 2.65449 23.006 3.43449C23.786 4.22532 24.2735 5.30866 24.2735 6.50033Z" fill="white" stroke="#D9D9D9" stroke-width="1.5" stroke-miterlimit="10" stroke-linecap="round" stroke-linejoin="round"/>
<path d="M2.60687 7.58366V22.7503C2.60687 23.6495 3.62521 24.1587 4.34021 23.617L6.19271 22.2303C6.62604 21.9053 7.23271 21.9487 7.62271 22.3387L9.42104 24.1478C9.84354 24.5703 10.5369 24.5703 10.9594 24.1478L12.7794 22.3278C13.1585 21.9487 13.7652 21.9053 14.1877 22.2303L16.0402 23.617C16.7552 24.1478 17.7735 23.6387 17.7735 22.7503V4.33366C17.7735 3.14199 18.7485 2.16699 19.9402 2.16699H8.02354H6.94021C3.69021 2.16699 2.60687 4.10616 2.60687 6.50033V7.58366Z" fill="#D9D9D9" stroke="#D9D9D9" stroke-width="1.5" stroke-miterlimit="10" stroke-linecap="round" stroke-linejoin="round"/>
<path d="M10.1902 14.0938H13.4402" stroke="white" stroke-width="1.5" stroke-linecap="round" stroke-linejoin="round"/>
<path d="M10.1902 9.76074H13.4402" stroke="white" stroke-width="1.5" stroke-linecap="round" stroke-linejoin="round"/>
<path d="M6.93542 14.083H6.94516" stroke="white" stroke-width="2" stroke-linecap="round" stroke-linejoin="round"/>
<path d="M6.93542 9.75H6.94516" stroke="white" stroke-width="2" stroke-linecap="round" stroke-linejoin="round"/>
</svg>
