<svg width="26" height="26" viewBox="0 0 26 26" fill="none" xmlns="http://www.w3.org/2000/svg">
<path d="M23.8333 6.50002V9.12169C23.8333 10.8334 22.75 11.9167 21.0383 11.9167H17.3333V4.34419C17.3333 3.14169 18.3192 2.16669 19.5217 2.16669C20.7025 2.17752 21.7858 2.65419 22.5658 3.43419C23.3458 4.22502 23.8333 5.30835 23.8333 6.50002Z" fill="white" stroke="url(#paint0_linear_1326_38376)" stroke-width="1.5" stroke-miterlimit="10" stroke-linecap="round" stroke-linejoin="round"/>
<path d="M2.16666 7.58335V22.75C2.16666 23.6492 3.18499 24.1584 3.89999 23.6167L5.75249 22.23C6.18582 21.905 6.79249 21.9484 7.18249 22.3384L8.98082 24.1475C9.40332 24.57 10.0967 24.57 10.5192 24.1475L12.3392 22.3275C12.7183 21.9484 13.325 21.905 13.7475 22.23L15.6 23.6167C16.315 24.1475 17.3333 23.6384 17.3333 22.75V4.33335C17.3333 3.14169 18.3083 2.16669 19.5 2.16669H7.58332H6.49999C3.24999 2.16669 2.16666 4.10585 2.16666 6.50002V7.58335Z" fill="url(#paint1_linear_1326_38376)" stroke="url(#paint2_linear_1326_38376)" stroke-width="1.5" stroke-miterlimit="10" stroke-linecap="round" stroke-linejoin="round"/>
<path d="M9.75 14.0942H13" stroke="white" stroke-width="1.5" stroke-linecap="round" stroke-linejoin="round"/>
<path d="M9.75 9.7608H13" stroke="white" stroke-width="1.5" stroke-linecap="round" stroke-linejoin="round"/>
<path d="M6.49524 14.0833H6.50497" stroke="white" stroke-width="2" stroke-linecap="round" stroke-linejoin="round"/>
<path d="M6.49524 9.75H6.50497" stroke="white" stroke-width="2" stroke-linecap="round" stroke-linejoin="round"/>
<defs>
<linearGradient id="paint0_linear_1326_38376" x1="20.5943" y1="0.0985053" x2="20.5943" y2="18.786" gradientUnits="userSpaceOnUse">
<stop stop-color="#16558F"/>
<stop offset="1" stop-color="#1584EC"/>
</linearGradient>
<linearGradient id="paint1_linear_1326_38376" x1="10.8625" y1="-2.56313" x2="10.8625" y2="40.1741" gradientUnits="userSpaceOnUse">
<stop stop-color="#16558F"/>
<stop offset="1" stop-color="#1584EC"/>
</linearGradient>
<linearGradient id="paint2_linear_1326_38376" x1="10.8625" y1="-2.56313" x2="10.8625" y2="40.1741" gradientUnits="userSpaceOnUse">
<stop stop-color="#16558F"/>
<stop offset="1" stop-color="#1584EC"/>
</linearGradient>
</defs>
</svg>
