<svg width="26" height="26" viewBox="0 0 26 26" fill="none" xmlns="http://www.w3.org/2000/svg">
<path d="M23.7575 7.32336L20.1066 21.9809C19.8466 23.0751 18.8717 23.8334 17.745 23.8334H3.50997C1.87413 23.8334 0.704151 22.23 1.19165 20.6591L5.75248 6.01257C6.06664 4.99424 7.00916 4.28998 8.07082 4.28998H21.3958C22.425 4.28998 23.2808 4.91832 23.6383 5.78498C23.8442 6.25082 23.8875 6.7817 23.7575 7.32336Z" fill="#D9D9D9" stroke="#D9D9D9" stroke-width="1.5" stroke-miterlimit="10"/>
<path d="M17.3333 23.8333H22.5117C23.9092 23.8333 25.0033 22.6525 24.9058 21.255L23.8333 6.5" fill="white"/>
<path d="M17.3333 23.8333H22.5117C23.9092 23.8333 25.0033 22.6525 24.9058 21.255L23.8333 6.5" stroke="#D9D9D9" stroke-width="1.5" stroke-miterlimit="10" stroke-linecap="round" stroke-linejoin="round"/>
<path d="M10.4867 6.91169L11.6133 2.23175" stroke="white" stroke-width="1.5" stroke-miterlimit="10" stroke-linecap="round" stroke-linejoin="round"/>
<path d="M17.745 6.92252L18.7633 2.22089" stroke="white" stroke-width="1.5" stroke-miterlimit="10" stroke-linecap="round" stroke-linejoin="round"/>
<path d="M8.34167 13H17.0083" stroke="white" stroke-width="1.5" stroke-miterlimit="10" stroke-linecap="round" stroke-linejoin="round"/>
<path d="M7.25836 17.3333H15.925" stroke="white" stroke-width="1.5" stroke-miterlimit="10" stroke-linecap="round" stroke-linejoin="round"/>
</svg>
