<svg width="26" height="26" viewBox="0 0 26 26" fill="none" xmlns="http://www.w3.org/2000/svg">
<path d="M2.16669 23.833H23.8334" stroke="url(#paint0_linear_1182_19048)" stroke-width="1.5" stroke-miterlimit="10" stroke-linecap="round" stroke-linejoin="round"/>
<path d="M3.1958 23.8337L3.24997 10.8012C3.24997 10.1403 3.56413 9.51206 4.08413 9.10039L11.6675 3.19621C12.4475 2.58954 13.5416 2.58954 14.3325 3.19621L21.9158 9.08955C22.4466 9.50121 22.75 10.1295 22.75 10.8012V23.8337" fill="url(#paint1_linear_1182_19048)"/>
<path d="M3.1958 23.8337L3.24997 10.8012C3.24997 10.1403 3.56413 9.51206 4.08413 9.10039L11.6675 3.19621C12.4475 2.58954 13.5416 2.58954 14.3325 3.19621L21.9158 9.08955C22.4466 9.50121 22.75 10.1295 22.75 10.8012V23.8337" stroke="url(#paint2_linear_1182_19048)" stroke-width="1.5" stroke-miterlimit="10" stroke-linejoin="round"/>
<path d="M16.7916 10.833H9.20831C8.30915 10.833 7.58331 11.5588 7.58331 12.458V22.7497H18.4166V12.458C18.4166 11.5588 17.6908 10.833 16.7916 10.833Z" fill="white" stroke="url(#paint3_linear_1182_19048)" stroke-width="1.5" stroke-miterlimit="10" stroke-linecap="round" stroke-linejoin="round"/>
<path d="M11.375 8.125H14.625" stroke="url(#paint4_linear_1182_19048)" stroke-width="1.5" stroke-miterlimit="10" stroke-linecap="round" stroke-linejoin="round"/>
<defs>
<linearGradient id="paint0_linear_1182_19048" x1="13.0365" y1="23.6209" x2="13.0365" y2="25.5376" gradientUnits="userSpaceOnUse">
<stop stop-color="#16558F"/>
<stop offset="1" stop-color="#1584EC"/>
</linearGradient>
<linearGradient id="paint1_linear_1182_19048" x1="13.0058" y1="-1.73295" x2="13.0058" y2="38.6943" gradientUnits="userSpaceOnUse">
<stop stop-color="#16558F"/>
<stop offset="1" stop-color="#1584EC"/>
</linearGradient>
<linearGradient id="paint2_linear_1182_19048" x1="13.0058" y1="-1.73295" x2="13.0058" y2="38.6943" gradientUnits="userSpaceOnUse">
<stop stop-color="#16558F"/>
<stop offset="1" stop-color="#1584EC"/>
</linearGradient>
<linearGradient id="paint3_linear_1182_19048" x1="13.0182" y1="8.30523" x2="13.0182" y2="31.1455" gradientUnits="userSpaceOnUse">
<stop stop-color="#1661A7"/>
<stop offset="1" stop-color="#1584EC"/>
</linearGradient>
<linearGradient id="paint4_linear_1182_19048" x1="13.0055" y1="7.91288" x2="13.0055" y2="9.82955" gradientUnits="userSpaceOnUse">
<stop stop-color="#16558F"/>
<stop offset="1" stop-color="#1584EC"/>
</linearGradient>
</defs>
</svg>
